<?xml version="1.0" encoding="utf-8"?>
<!-- Generator: Adobe Illustrator 19.0.1, SVG Export Plug-In . SVG Version: 6.00 Build 0)  -->
<svg version="1.2" baseProfile="tiny" id="Layer_1" xmlns="http://www.w3.org/2000/svg" xmlns:xlink="http://www.w3.org/1999/xlink"
	 x="0px" y="0px" viewBox="0 0 385.5 105" xml:space="preserve">
<g>
	<g>
		<rect y="85.9" fill="#FFFFFF" width="24.2" height="19.1"/>
		<path fill="#FFFFFF" d="M58.7,57.2c2.9,0,5.7-0.4,8.2-1c12-3.2,19.2-13.5,19.2-27.6c0-5-0.9-9.6-2.7-13.5C79.3,5.7,70.5,0,58.7,0
			v0H24.2H0v9.5v19.1h24.2V9.5h13.5h10c8.6,0,14.1,7.7,14.1,19.1s-5.4,19.1-14.1,19.1v0h-10H24.2H0v9.5v19.1h24.2V57.2L58.7,57.2
			L58.7,57.2z"/>
	</g>
	<g>
		<polygon fill="#FFFFFF" points="149.9,85.9 123.8,85.9 131.5,105 157.6,105 		"/>
		<polygon fill="#FFFFFF" points="142.2,66.8 115.3,0 100.4,0 89.5,0 89.2,0 89.3,0.3 94.8,13.9 116.1,66.8 73.5,66.8 62.6,66.8 
			58.8,76.3 47.2,105 58.1,105 69.7,76.3 119.9,76.3 146,76.3 		"/>
	</g>
	<g>
		<path fill="#FFFFFF" d="M184.1,18.8h7.2c5.2,0,8.5,2.6,8.5,8c0,6-4.6,8.2-8.4,8.2h-2.3v7.4h-5V18.8z M189.1,21.2v11.5h1.7
			c2.3,0,3.6-1.2,3.6-5.7c0-4.5-1.3-5.8-3.6-5.8H189.1z"/>
		<path fill="#FFFFFF" d="M221.1,26.2c0,3.2-1.9,5.4-4.1,6.6l5.4,9.6h-5.8l-4.4-8.6h-1.9v8.6h-5V18.8h7.3
			C217.9,18.8,221.1,21.5,221.1,26.2z M210.3,21.2v10.3h1.9c2.6,0,3.5-1.2,3.5-5c0-3.7-1-5.3-3.6-5.3H210.3z"/>
		<path fill="#FFFFFF" d="M233.1,42.4h-5V18.8h5V42.4z"/>
		<path fill="#FFFFFF" d="M258.7,42.4h-3.9l-11.2-17.7h-0.1l0.3,2.1v15.6h-3.1V18.8h5.2l9.9,16h0.1l-0.3-1.6V18.8h3.1V42.4z"/>
		<path fill="#FFFFFF" d="M276.5,21.2c-4,0-5.8,2.4-5.8,9.4s2.1,9.5,6.1,9.5c3.9,0,6-3.4,6-3.4l1.6,1.7c0,0-2.2,4.4-8.3,4.4
			c-7.3,0-10.9-4.7-10.9-12c0-7.4,4-12.3,10.7-12.3c3.7,0,7.3,1.9,7.3,1.9l-0.5,2.6C282.6,23,279.1,21.2,276.5,21.2z"/>
		<path fill="#FFFFFF" d="M294.7,42.4h-5V18.8h5V42.4z"/>
		<path fill="#FFFFFF" d="M302.3,18.8h7.2c5.2,0,8.5,2.6,8.5,8c0,6-4.6,8.2-8.4,8.2h-2.3v7.4h-5V18.8z M307.3,21.2v11.5h1.7
			c2.2,0,3.6-1.2,3.6-5.7c0-4.5-1.3-5.8-3.6-5.8H307.3z"/>
		<path fill="#FFFFFF" d="M333.6,18.8l7.3,23.6h-5.3l-2-6.6h-8.2l-2.1,6.6h-3l7.8-23.6H333.6z M329.7,22.4l-3.5,11.1h6.8L329.7,22.4
			L329.7,22.4z"/>
		<path fill="#FFFFFF" d="M360.6,42.4h-14.2V18.8h5v21h9.1V42.4z"/>
		<path fill="#FFFFFF" d="M363.3,14.9c0.6,0,1.2,0.2,1.7,0.7l0.1,0.1c0.6,0.7,0.9,1.7,0.9,2.8c0,2.8-1.8,6.4-4.1,8.3l-1.3-1.3
			c1.6-1.5,2.8-3.6,2.9-5.4h-0.3c-0.6,0-1.3-0.2-1.7-0.7c-0.5-0.5-0.7-1.2-0.7-1.9c0-0.7,0.2-1.4,0.7-1.9
			C362,15.2,362.7,14.9,363.3,14.9z"/>
		<path fill="#FFFFFF" d="M383.9,22.6c0,0-2.4-1.6-4.9-1.6c-1.8,0-3,1.1-3,2.9c0,5.1,9.5,3.9,9.5,11.8c0,4.5-3.7,7.1-8.3,7.1
			c-5.4,0-7.1-2.9-7.1-2.9l1.4-2.1c0,0,1.9,2.3,5.4,2.3c2.4,0,3.6-1.4,3.6-3.3c0-4.6-9.4-3.8-9.4-11.3c0-4.4,3.2-7,7.7-7
			c3.3,0,5.8,1.7,5.8,1.7L383.9,22.6z"/>
		<path fill="#FFFFFF" d="M195.3,61l7.3,23.6h-5.3l-2-6.6h-8.2l-2.1,6.6h-3l7.8-23.6H195.3z M191.3,64.6l-3.5,11.1h6.8L191.3,64.6
			L191.3,64.6z"/>
		<path fill="#FFFFFF" d="M227.6,72.8c0,7.6-3.9,11.7-11.4,11.7h-8.1V61h8C223.4,61,227.6,65,227.6,72.8z M213.2,63.5V82h3.1
			c4.1,0,5.8-2.4,5.8-9.1c0-6.8-1.7-9.3-5.8-9.3H213.2z"/>
		<path fill="#FFFFFF" d="M237.9,84.5L230.9,61h5.3l5.6,19.9h0.1l6.1-19.9h3.2l-7.6,23.6H237.9z"/>
		<path fill="#FFFFFF" d="M261.4,84.5h-5V61h5V84.5z"/>
		<path fill="#FFFFFF" d="M281.1,64.7c0,0-2.4-1.6-4.9-1.6c-1.8,0-3,1.1-3,2.9c0,5.1,9.5,3.9,9.5,11.8c0,4.5-3.7,7.1-8.3,7.1
			c-5.4,0-7.1-2.9-7.1-2.9l1.4-2.1c0,0,1.9,2.3,5.4,2.3c2.4,0,3.6-1.4,3.6-3.3c0-4.6-9.4-3.8-9.4-11.3c0-4.4,3.2-7,7.7-7
			c3.3,0,5.8,1.7,5.8,1.7L281.1,64.7z"/>
		<path fill="#FFFFFF" d="M298.3,84.9c-6.9,0-10.7-4.8-10.7-12.2c0-7.4,3.7-12.2,10.7-12.2c7,0,10.8,4.8,10.8,12.2
			C309.1,80.2,305.3,84.9,298.3,84.9z M298.3,63.2c-3.6,0-5.2,2.9-5.2,9.6c0,6.7,1.4,9.6,5.2,9.6c3.7,0,5.2-2.9,5.2-9.6
			C303.5,66.1,302,63.2,298.3,63.2z"/>
		<path fill="#FFFFFF" d="M331.2,68.4c0,3.2-1.9,5.4-4.1,6.6l5.4,9.6h-5.8l-4.4-8.6h-1.9v8.6h-5V61h7.3
			C328,61,331.2,63.6,331.2,68.4z M320.4,63.3v10.3h1.9c2.6,0,3.5-1.2,3.5-5c0-3.7-1-5.3-3.6-5.3H320.4z"/>
	</g>
</g>
</svg>
